<svg width="1488" height="447" viewBox="0 0 1488 447" fill="none" xmlns="http://www.w3.org/2000/svg">
<g clip-path="url(#clip0_949_1725)">
<path d="M1487.15 292.63H1466.08V446.1H1487.15V292.63Z" fill="#3DE3A5"/>
<path fill-rule="evenodd" clip-rule="evenodd" d="M35.0001 75.4301C35.0001 39.2001 76.9901 33.3701 81.7101 32.8701L77.9801 0.620117C51.3001 3.40012 0.830078 22.6301 0.830078 75.4001V254.96H35.0001V162.42H89.1801V130.03H35.0001V75.4201V75.4301Z" fill="#C2D1F8"/>
<path d="M540.39 68.8601V184.13C540.39 213.6 524.23 224.1 509.11 224.1C489.86 224.1 478.36 209.16 478.36 184.13V68.8601H444.25V184.13C444.25 235.94 476.83 259.14 509.11 259.14C541.39 259.14 574.47 235.66 574.47 184.13V68.8601H540.39Z" fill="#C2D1F8"/>
<path d="M234.44 68.8601V184.13C234.44 213.6 218.28 224.1 203.16 224.1C183.91 224.1 172.41 209.16 172.41 184.13V68.8601H138.28V184.13C138.28 235.94 170.83 259.14 203.14 259.14C235.45 259.14 268.5 235.66 268.5 184.13V68.8601H234.43H234.44Z" fill="#C2D1F8"/>
<path fill-rule="evenodd" clip-rule="evenodd" d="M623.59 133.48V254.97H657.72V133.48C657.72 97.8501 698.53 91.7901 703.12 91.2901L699.25 59.3201C673.46 62.2701 623.61 81.5201 623.61 133.44" fill="#C2D1F8"/>
<path fill-rule="evenodd" clip-rule="evenodd" d="M351.76 184.04V101.4H395.15V68.9501H351.76V0.870117H317.63V184.04C317.63 236.44 367.42 255.95 393.24 258.92L397.2 226.67C392.59 226.1 351.76 219.95 351.76 183.99" fill="#C2D1F8"/>
<path fill-rule="evenodd" clip-rule="evenodd" d="M817.04 65.8201C769.17 65.8201 730.39 109.13 730.39 162.35C730.39 215.57 769.27 258.79 817.04 258.79C836.92 258.79 856.09 251.42 870.85 238.12L849.11 213.51C840.35 221.53 828.92 226.02 817.04 226.11C787.36 226.11 763.22 197.58 763.22 162.51C763.22 127.44 787.37 98.8701 817.04 98.8701C841.93 98.8701 862.91 118.91 869.06 146.08H801.18V178.92H903.69V162.51C903.69 109.29 864.83 65.8101 817.04 65.8101V65.8201Z" fill="#C2D1F8"/>
<path d="M1250.96 162.35C1250.96 109.13 1289.74 65.8301 1337.61 65.8201C1385.39 65.8201 1424.25 109.3 1424.25 162.52V178.93H1321.75V146.09H1389.65C1383.49 118.92 1362.52 98.8801 1337.62 98.8801C1307.95 98.8801 1283.81 127.46 1283.81 162.52C1283.81 197.58 1307.94 226.12 1337.62 226.12C1349.51 226.03 1360.93 221.54 1369.7 213.52L1391.42 238.13C1376.66 251.43 1357.49 258.79 1337.61 258.8C1289.85 258.8 1250.96 215.58 1250.96 162.36V162.35Z" fill="white"/>
<path d="M1135.61 68.77H1135.73C1167.33 68.82 1201.3 91.37 1201.3 140.64V255H1167.14V140.64C1167.14 127.83 1163.83 117.41 1157.61 110.52C1154.96 107.6 1151.73 105.28 1148.12 103.71C1144.5 102.14 1140.6 101.35 1136.66 101.39C1116.43 101.39 1104.34 117.69 1104.34 133.45V254.99H1070.07V140.63C1070.07 127.8 1066.77 117.38 1060.54 110.49C1057.9 107.57 1054.67 105.25 1051.06 103.67C1047.45 102.09 1043.55 101.3 1039.61 101.35C1024.06 101.35 1007.28 113.61 1007.28 133.43V254.97H973.1V133.53C973.15 124.97 974.9 116.52 978.25 108.64C981.59 100.76 986.47 93.63 992.58 87.65C1004.99 75.48 1021.34 68.62 1038.8 68.78H1038.9C1048.01 68.87 1057 70.86 1065.3 74.63C1073.59 78.4 1081 83.87 1087.05 90.69C1093.04 84.03 1100.32 78.66 1108.45 74.9C1116.96 70.93 1126.22 68.85 1135.61 68.78V68.77Z" fill="white"/>
<path d="M938.28 395.01C938.52 393.47 938.75 390.87 938.75 388.85C938.75 372.99 927.39 361.27 911.76 361.27C895.3 361.27 882.4 374.65 882.4 392.28C882.4 409.91 892.94 423.3 911.76 423.3C923.72 423.3 931.77 418.92 937.68 409.45L929.87 404.48C926.32 411.23 920.04 414.07 912.23 414.07C900.87 414.07 893.88 405.19 893.17 395.01H938.27H938.28ZM911.88 370.51C920.76 370.51 927.15 377.97 927.62 386.37H894C896.13 377.49 902.29 370.51 911.88 370.51V370.51ZM978.24 423.31C985.34 423.31 992.8 420.23 997.06 413.96V421.89H1007.84V333.1H997.06V369.21C992.33 364.36 985.34 361.28 978.47 361.28C960.36 361.28 948.64 376.55 948.64 392.29C948.64 409.57 961.19 423.31 978.24 423.31V423.31ZM979.66 413.37C967.35 413.37 959.65 403.43 959.65 392.54C959.65 382.24 966.16 371.23 979.89 371.23C985.93 371.23 992.91 374.43 997.05 380.23V402.25C993.97 409.47 986.04 413.38 979.65 413.38L979.66 413.37ZM1068.8 421.89H1079.57V362.7H1068.8V402C1064.54 408.63 1058.03 413.36 1051.16 413.36C1045.95 413.36 1042.76 411.47 1040.86 408.62C1038.02 404.36 1037.78 398.08 1037.78 392.28V362.68H1027.01V393.46C1027.01 402.46 1028.31 410.39 1032.34 415.83C1035.77 420.45 1041.22 423.29 1049.5 423.29C1057.78 423.29 1064.42 419.15 1068.8 412.16V421.87V421.89ZM1137.63 409.22C1134.44 411.59 1128.99 413.36 1125.08 413.36C1114.78 413.36 1105.55 405.07 1105.55 392.29C1105.55 380.57 1114.31 371.22 1124.96 371.22C1129.23 371.22 1133.72 372.76 1137.04 375.24L1142.13 366.36C1137.39 363.16 1131.71 361.27 1125.44 361.27C1108.15 361.27 1094.54 375 1094.54 392.28C1094.54 410.98 1107.92 423.3 1124.85 423.3C1131.95 423.3 1138.58 421.05 1142.96 417.5L1137.63 409.21V409.22ZM1201.15 421.89V385.9C1201.15 370.63 1194.88 361.28 1177.72 361.28C1169.55 361.28 1160.55 363.88 1154.39 366.84L1157.59 375.84C1162.33 373.24 1169.55 370.63 1176.41 370.63C1186.12 370.63 1190.38 375.84 1190.38 384.83V386.96C1185.29 385.89 1181.5 385.66 1178.54 385.66C1165.52 385.66 1152.15 390.28 1152.15 405.31C1152.15 417.98 1162.21 423.3 1173.1 423.3C1180.68 423.3 1186 421.05 1190.86 415.61V421.88H1201.15V421.89ZM1190.38 407.21C1185.65 411.23 1180.44 414.31 1174.4 414.31C1168.36 414.31 1162.68 411.7 1162.68 404.48C1162.68 395.6 1172.39 393.83 1179.73 393.83C1182.69 393.83 1186 394.07 1190.38 395.01V407.2V407.21ZM1248.26 372.17V362.7H1231.68V348.5H1220.91V362.7H1212.98V372.17H1220.91V401.53C1220.91 406.15 1221.39 410.53 1222.81 413.84C1225.29 419.4 1230.38 423.07 1238.67 423.07C1242.58 423.07 1246.72 422 1249.68 420.47L1246.72 411.83C1244.82 412.78 1242.46 413.49 1240.09 413.49C1234.17 413.49 1232.16 409.82 1231.8 403.55C1231.68 401.77 1231.68 400.47 1231.68 398.93V372.18H1248.26V372.17ZM1272.02 421.89V362.7H1261.24V421.89H1272.02V421.89ZM1272.02 351.1V339.02H1261.24V351.1H1272.02ZM1317.09 361.28C1299.81 361.28 1286.91 375.01 1286.91 392.29C1286.91 409.57 1299.81 423.31 1317.09 423.31C1334.37 423.31 1347.28 409.58 1347.28 392.29C1347.28 375 1334.38 361.28 1317.09 361.28ZM1336.27 392.29C1336.27 403.77 1328.22 413.36 1317.09 413.36C1305.96 413.36 1297.92 403.77 1297.92 392.29C1297.92 380.81 1305.97 371.22 1317.09 371.22C1328.21 371.22 1336.27 380.81 1336.27 392.29ZM1362.17 362.69V421.88H1372.94V382.58C1377.2 375.95 1383.71 371.22 1390.58 371.22C1395.79 371.22 1398.98 373.11 1400.88 375.96C1403.72 380.22 1403.96 386.5 1403.96 392.3V421.9H1414.73V391.12C1414.73 382.12 1413.43 374.19 1409.4 368.75C1405.97 364.13 1400.52 361.29 1392.24 361.29C1383.96 361.29 1377.32 365.43 1372.94 372.42V362.71H1362.17V362.69Z" fill="white"/>
</g>
<defs>
<clipPath id="clip0_949_1725">
<rect width="1488" height="447" fill="white"/>
</clipPath>
</defs>
</svg>
