<svg width="1488" height="447" viewBox="0 0 1488 447" fill="none" xmlns="http://www.w3.org/2000/svg">
<g clip-path="url(#clip0_949_1697)">
<path d="M1487.15 292.63H1466.08V446.1H1487.15V292.63Z" fill="#FF5D36"/>
<path fill-rule="evenodd" clip-rule="evenodd" d="M35.0001 75.4399C35.0001 39.2099 76.9901 33.3799 81.7101 32.8699L77.9801 0.629883C51.3001 3.40988 0.830078 22.6399 0.830078 75.4099V254.97H35.0001V162.43H89.1801V130.04H35.0001V75.4399V75.4399Z" fill="#C2D1F8"/>
<path d="M540.39 68.8599V184.13C540.39 213.6 524.23 224.1 509.11 224.1C489.86 224.1 478.36 209.16 478.36 184.13V68.8599H444.25V184.13C444.25 235.94 476.83 259.14 509.11 259.14C541.39 259.14 574.47 235.67 574.47 184.13V68.8599H540.39Z" fill="#C2D1F8"/>
<path d="M234.44 68.8599V184.13C234.44 213.6 218.28 224.1 203.16 224.1C183.91 224.1 172.41 209.16 172.41 184.13V68.8599H138.28V184.13C138.28 235.94 170.83 259.14 203.14 259.14C235.45 259.14 268.5 235.67 268.5 184.13V68.8599H234.43H234.44Z" fill="#C2D1F8"/>
<path fill-rule="evenodd" clip-rule="evenodd" d="M623.59 133.48V254.97H657.72V133.48C657.72 97.8498 698.53 91.7898 703.12 91.2798L699.25 59.3198C673.46 62.2598 623.61 81.5198 623.61 133.44" fill="#C2D1F8"/>
<path fill-rule="evenodd" clip-rule="evenodd" d="M351.76 184.05V101.41H395.15V68.9499H351.76V0.879883H317.63V184.05C317.63 236.45 367.42 255.96 393.24 258.93L397.2 226.68C392.59 226.11 351.76 219.96 351.76 184" fill="#C2D1F8"/>
<path fill-rule="evenodd" clip-rule="evenodd" d="M817.04 65.8198C769.17 65.8198 730.39 109.13 730.39 162.35C730.39 215.57 769.27 258.78 817.04 258.78C836.92 258.78 856.09 251.42 870.85 238.12L849.11 213.51C840.35 221.53 828.92 226.02 817.04 226.11C787.36 226.11 763.22 197.58 763.22 162.51C763.22 127.44 787.37 98.8698 817.04 98.8698C841.93 98.8698 862.91 118.92 869.06 146.09H801.18V178.93H903.69V162.51C903.69 109.3 864.83 65.8198 817.04 65.8198V65.8198Z" fill="#C2D1F8"/>
<path d="M1250.96 162.35C1250.96 109.13 1289.74 65.8198 1337.61 65.8198C1385.48 65.8198 1424.25 109.3 1424.25 162.51V178.93H1321.75V146.09H1389.65C1383.49 118.92 1362.52 98.8698 1337.62 98.8698C1307.95 98.8698 1283.81 127.45 1283.81 162.51C1283.81 197.57 1307.94 226.11 1337.62 226.11C1349.51 226.02 1360.93 221.53 1369.7 213.51L1391.42 238.12C1376.66 251.42 1357.49 258.78 1337.61 258.78C1289.85 258.78 1250.96 215.57 1250.96 162.35V162.35Z" fill="white"/>
<path d="M1135.61 68.78H1135.73C1167.33 68.83 1201.3 91.38 1201.3 140.64V255H1167.14V140.64C1167.14 127.83 1163.83 117.42 1157.61 110.52C1154.96 107.6 1151.73 105.28 1148.12 103.71C1144.5 102.13 1140.6 101.34 1136.66 101.39C1116.43 101.39 1104.34 117.69 1104.34 133.45V254.99H1070.07V140.63C1070.07 127.8 1066.77 117.38 1060.54 110.48C1057.9 107.57 1054.67 105.24 1051.06 103.67C1047.45 102.09 1043.55 101.3 1039.61 101.35C1024.06 101.35 1007.28 113.61 1007.28 133.43V254.97H973.1V133.53C973.15 124.97 974.9 116.51 978.25 108.64C981.59 100.76 986.47 93.63 992.58 87.64C1004.99 75.47 1021.34 68.62 1038.8 68.77H1038.9C1048.01 68.86 1057 70.85 1065.3 74.63C1073.59 78.4 1081 83.87 1087.05 90.68C1093.04 84.03 1100.32 78.65 1108.45 74.89C1116.96 70.93 1126.22 68.84 1135.61 68.78V68.78Z" fill="white"/>
<path d="M959.17 333.1V421.88H969.94V415.49C974.67 420.34 981.54 423.3 988.53 423.3C1006.64 423.3 1018.36 408.03 1018.36 392.41C1018.36 375 1005.81 361.27 988.76 361.27C981.66 361.27 974.2 364.47 969.94 370.62V333.1H959.17ZM969.94 382.46C972.9 375.12 980.95 371.22 987.34 371.22C999.65 371.22 1007.35 381.16 1007.35 392.17C1007.35 402.35 1000.84 413.36 987.11 413.36C980.95 413.36 973.97 410.16 969.95 404.36V382.46H969.94ZM1074.35 421.88H1085.12V362.69H1074.35V401.99C1070.09 408.62 1063.58 413.36 1056.71 413.36C1051.5 413.36 1048.31 411.46 1046.41 408.62C1043.57 404.36 1043.33 398.09 1043.33 392.29V362.69H1032.56V393.47C1032.56 402.47 1033.86 410.4 1037.89 415.84C1041.32 420.46 1046.77 423.3 1055.05 423.3C1063.33 423.3 1069.97 419.16 1074.35 412.18V421.88ZM1140.34 367.78C1135.6 363.52 1128.86 361.27 1122.11 361.27C1112.28 361.27 1103.05 366.95 1103.05 378.91C1103.05 389.56 1112.16 393 1119.98 396.08C1125.9 398.44 1131.34 400.57 1131.34 405.19C1131.34 411.35 1126.49 414.31 1120.69 414.31C1115.95 414.31 1111.69 412.18 1107.78 408.03L1100.21 414.07C1104.83 420.11 1112.52 423.3 1120.57 423.3C1131.7 423.3 1142 417.98 1142 404.72C1142 394.42 1132.41 390.04 1124.71 387.08C1119.03 384.83 1113.35 382.58 1113.35 378.08C1113.35 373.58 1116.78 370.27 1122.23 370.27C1126.25 370.27 1131.22 372.28 1133.95 374.65L1140.34 367.78V367.78ZM1169.24 421.88V362.69H1158.47V421.88H1169.24V421.88ZM1169.24 351.09V339.02H1158.47V351.09H1169.24ZM1189.11 362.69V421.88H1199.88V382.58C1204.14 375.95 1210.65 371.22 1217.52 371.22C1222.73 371.22 1225.92 373.11 1227.82 375.95C1230.66 380.21 1230.89 386.49 1230.89 392.29V421.88H1241.67V391.1C1241.67 382.11 1240.37 374.18 1236.34 368.73C1232.91 364.11 1227.46 361.27 1219.18 361.27C1210.9 361.27 1204.26 365.42 1199.88 372.4V362.69H1189.11ZM1311.8 395.01C1312.04 393.47 1312.27 390.87 1312.27 388.85C1312.27 372.99 1300.91 361.27 1285.28 361.27C1268.83 361.27 1255.93 374.65 1255.93 392.29C1255.93 409.93 1266.46 423.3 1285.28 423.3C1297.24 423.3 1305.29 418.92 1311.21 409.45L1303.4 404.48C1299.84 411.23 1293.57 414.07 1285.76 414.07C1274.39 414.07 1267.41 405.19 1266.7 395.01H1311.8ZM1285.4 370.51C1294.28 370.51 1300.67 377.96 1301.15 386.37H1267.53C1269.66 377.49 1275.81 370.51 1285.4 370.51ZM1362.42 367.78C1357.68 363.52 1350.93 361.27 1344.19 361.27C1334.36 361.27 1325.13 366.95 1325.13 378.91C1325.13 389.56 1334.24 393 1342.06 396.08C1347.97 398.44 1353.42 400.57 1353.42 405.19C1353.42 411.35 1348.57 414.31 1342.77 414.31C1338.03 414.31 1333.77 412.18 1329.86 408.03L1322.29 414.07C1326.9 420.11 1334.6 423.3 1342.65 423.3C1353.77 423.3 1364.07 417.98 1364.07 404.72C1364.07 394.42 1354.48 390.04 1346.79 387.08C1341.11 384.83 1335.43 382.58 1335.43 378.08C1335.43 373.58 1338.86 370.27 1344.3 370.27C1348.33 370.27 1353.3 372.28 1356.02 374.65L1362.42 367.78ZM1415.83 367.78C1411.09 363.52 1404.34 361.27 1397.6 361.27C1387.77 361.27 1378.54 366.95 1378.54 378.91C1378.54 389.56 1387.65 393 1395.46 396.08C1401.38 398.44 1406.83 400.57 1406.83 405.19C1406.83 411.35 1401.98 414.31 1396.17 414.31C1391.44 414.31 1387.18 412.18 1383.27 408.03L1375.7 414.07C1380.31 420.11 1388.01 423.3 1396.06 423.3C1407.18 423.3 1417.48 417.98 1417.48 404.72C1417.48 394.42 1407.89 390.04 1400.2 387.08C1394.52 384.83 1388.84 382.58 1388.84 378.08C1388.84 373.58 1392.27 370.27 1397.71 370.27C1401.74 370.27 1406.71 372.28 1409.43 374.65L1415.83 367.78Z" fill="white"/>
</g>
<defs>
<clipPath id="clip0_949_1697">
<rect width="1488" height="447" fill="white"/>
</clipPath>
</defs>
</svg>
